<svg width="97" height="98" viewBox="0 0 97 98" fill="none" xmlns="http://www.w3.org/2000/svg">
<path fill-rule="evenodd" clip-rule="evenodd" d="M78.7113 78.0329C57.1632 99.581 26.6513 104.005 10.5611 87.9153C-5.52908 71.825 -1.10461 41.3132 20.4435 19.7651C41.9915 -1.78295 72.5034 -6.20743 88.5936 9.88278C92.4268 13.7159 95.0956 18.3676 96.6461 23.5215C86.261 24.2816 78.0357 34.5591 78.0357 47.1258C78.0357 55.6849 81.8513 63.1821 87.5661 67.3335C85.0436 71.0601 82.0876 74.6566 78.7113 78.0329ZM49.8495 67.9203C54.641 67.9203 58.5253 71.8046 58.5253 76.5961C58.5253 81.3876 54.641 85.2718 49.8495 85.2718C45.0581 85.2718 41.1738 81.3876 41.1738 76.5961C41.1738 71.8046 45.0581 67.9203 49.8495 67.9203ZM33.283 74.7113C33.283 69.9199 29.3987 66.0356 24.6072 66.0356C19.8157 66.0356 15.9315 69.9199 15.9315 74.7113C15.9315 79.5028 19.8157 83.3871 24.6072 83.3871C29.3987 83.3871 33.283 79.5028 33.283 74.7113ZM20.8952 39.0229C25.6867 39.0229 29.571 42.9072 29.571 47.6986C29.571 52.4901 25.6867 56.3744 20.8952 56.3744C16.1037 56.3744 12.2194 52.4901 12.2194 47.6986C12.2194 42.9072 16.1037 39.0229 20.8952 39.0229ZM45.5044 28.453C45.5044 23.6615 41.6201 19.7772 36.8286 19.7772C32.0372 19.7772 28.1529 23.6615 28.1529 28.453C28.1529 33.2445 32.0372 37.1287 36.8286 37.1287C41.6201 37.1287 45.5044 33.2445 45.5044 28.453ZM61.4426 9.15483C66.2341 9.15483 70.1183 13.0391 70.1183 17.8306C70.1183 22.6221 66.2341 26.5063 61.4426 26.5063C56.6511 26.5063 52.7668 22.6221 52.7668 17.8306C52.7668 13.0391 56.6511 9.15483 61.4426 9.15483Z" fill="url(#paint0_linear_11_46)"/>
<defs>
<linearGradient id="paint0_linear_11_46" x1="76.2971" y1="50.3652" x2="18.3473" y2="15.5773" gradientUnits="userSpaceOnUse">
<stop stop-color="#FFB13C"/>
<stop offset="0.418968" stop-color="#FF7B00"/>
<stop offset="1" stop-color="#FFB13C"/>
</linearGradient>
</defs>
</svg>
