<svg width="111" height="100" viewBox="0 0 111 100" fill="none" xmlns="http://www.w3.org/2000/svg">
<path fill-rule="evenodd" clip-rule="evenodd" d="M9.44336 99.7012C6.10597 98.1842 -0.432307 93.6028 0.113722 87.4134C0.659751 81.2239 0.341234 52.2185 0.113722 38.4895C1.25146 25.1397 9.12472 -1.19571 31.5159 0.260628C36.6372 2.14699 47.7246 5.86953 51.1042 5.66876C54.4838 5.46799 64.1403 3.29858 68.546 2.23896C72.3662 2.82454 80.5252 5.05809 82.5998 9.30769C83.043 10.2156 84.1834 11.6028 85.7651 13.5267C93.4377 22.8597 111.493 44.8229 110.705 85.9604C102.839 87.1706 83.0608 82.8658 66.8789 55.9652C64.6026 54.4957 58.4768 52.957 52.1838 56.4838C49.8908 57.7689 49.2366 59.81 48.314 62.6889C46.0714 69.6859 42.2428 81.6319 9.44336 99.7012ZM20.1405 38.9578V29.8643H28.6235V16.6311L35.0705 15.9525L38.1922 29.8643H48.6431L48.9824 38.9578H39.8209C39.64 42.6226 39.3389 49.6918 39.7732 49.6918C40.2075 49.6918 35.4777 49.952 33.0346 49.952L30.4688 39.0133L30.4558 38.9578H20.1405ZM76.1332 32.8492C77.0342 36.5364 75.5634 40.0635 72.848 40.7271C70.1326 41.3906 67.2008 38.9395 66.2997 35.2523C65.3987 31.565 66.8695 28.038 69.5849 27.3744C72.3004 26.7108 75.2321 29.162 76.1332 32.8492ZM79.8274 28.1036C82.5428 27.4401 84.0136 23.913 83.1125 20.2258C82.2115 16.5386 79.2797 14.0874 76.5643 14.751C73.8489 15.4146 72.378 18.9416 73.2791 22.6288C74.1802 26.3161 77.1119 28.7672 79.8274 28.1036ZM94.1411 32.1067C95.0422 35.7939 93.5714 39.3209 90.8559 39.9845C88.1405 40.6481 85.2087 38.1969 84.3077 34.5097C83.4066 30.8225 84.8774 27.2954 87.5929 26.6319C90.3083 25.9683 93.24 28.4194 94.1411 32.1067ZM83.8232 51.6763C86.5386 51.0127 88.0095 47.4857 87.1084 43.7984C86.2073 40.1112 83.2756 37.66 80.5602 38.3236C77.8447 38.9872 76.3739 42.5142 77.275 46.2015C78.176 49.8887 81.1078 52.3399 83.8232 51.6763Z" fill="url(#paint0_linear_11_32)"/>
<defs>
<linearGradient id="paint0_linear_11_32" x1="87.2183" y1="51.4498" x2="24.8716" y2="9.12075" gradientUnits="userSpaceOnUse">
<stop stop-color="#FFB13C"/>
<stop offset="0.418968" stop-color="#FF7B00"/>
<stop offset="1" stop-color="#FFB13C"/>
</linearGradient>
</defs>
</svg>
