<svg width="229" height="33" viewBox="0 0 229 33" fill="none" xmlns="http://www.w3.org/2000/svg">
<path d="M5.396 32.1282H2.18799C1.72656 32.1282 1.35303 31.9744 1.04541 31.6667C0.737793 31.3591 0.583984 30.9856 0.583984 30.5242V1.60815C0.583984 1.1687 0.737793 0.795166 1.04541 0.465576C1.35303 0.157959 1.72656 0.00415039 2.18799 0.00415039H16.646C17.5469 0.00415039 18.2939 0.311768 18.9092 0.948975C19.5464 1.56421 19.854 2.31128 19.854 3.21216V30.5242C19.854 30.9856 19.7002 31.3591 19.3926 31.6667C19.063 31.9744 18.6895 32.1282 18.25 32.1282H15.042C14.6025 32.1282 14.229 31.9744 13.8994 31.6667C13.5918 31.3591 13.438 30.9856 13.438 30.5242V8.02417C13.438 7.58472 13.2842 7.21118 12.9546 6.90356C12.647 6.57397 12.2734 6.42017 11.834 6.42017H8.604C8.16455 6.42017 7.79102 6.57397 7.46143 6.90356C7.15381 7.21118 7 7.58472 7 8.02417V30.5242C7 30.9856 6.84619 31.3591 6.53857 31.6667C6.20898 31.9744 5.83545 32.1282 5.396 32.1282ZM40.75 32.1282H24.688C24.2266 32.1282 23.853 31.9744 23.5454 31.6667C23.2378 31.3591 23.084 30.9856 23.084 30.5242V1.60815C23.084 1.1687 23.2378 0.795166 23.5454 0.465576C23.853 0.157959 24.2266 0.00415039 24.688 0.00415039H40.75C41.1895 0.00415039 41.563 0.157959 41.8926 0.465576C42.2002 0.795166 42.354 1.1687 42.354 1.60815V4.81616C42.354 5.25562 42.2002 5.62915 41.8926 5.95874C41.563 6.26636 41.1895 6.42017 40.75 6.42017H31.104C30.6646 6.42017 30.291 6.57397 29.9614 6.90356C29.6538 7.21118 29.5 7.58472 29.5 8.02417V11.2542C29.5 11.6936 29.6538 12.0671 29.9614 12.3748C30.291 12.7043 30.6646 12.8582 31.104 12.8582H40.75C41.1895 12.8582 41.563 13.012 41.8926 13.3196C42.2002 13.6492 42.354 14.0227 42.354 14.4622V17.6702C42.354 18.1096 42.2002 18.4832 41.8926 18.8127C41.563 19.1204 41.1895 19.2742 40.75 19.2742H31.104C30.6646 19.2742 30.291 19.428 29.9614 19.7576C29.6538 20.0652 29.5 20.4387 29.5 20.8782V24.1082C29.5 24.5476 29.6538 24.9211 29.9614 25.2507C30.291 25.5583 30.6646 25.7122 31.104 25.7122H40.75C41.1895 25.7122 41.563 25.866 41.8926 26.1736C42.2002 26.5032 42.354 26.8767 42.354 27.3162V30.5242C42.354 30.9856 42.2002 31.3591 41.8926 31.6667C41.563 31.9744 41.1895 32.1282 40.75 32.1282ZM68.084 32.1282H48.792C47.8911 32.1282 47.144 31.8206 46.5068 31.2053C45.8916 30.5681 45.584 29.821 45.584 28.9202V1.60815C45.584 1.1687 45.7378 0.795166 46.0454 0.465576C46.353 0.157959 46.7266 0.00415039 47.188 0.00415039H50.396C50.8354 0.00415039 51.209 0.157959 51.5386 0.465576C51.8462 0.795166 52 1.1687 52 1.60815V24.1082C52 24.5476 52.1538 24.9211 52.4614 25.2507C52.791 25.5583 53.1646 25.7122 53.604 25.7122C54.0435 25.7122 54.417 25.5583 54.7466 25.2507C55.0542 24.9211 55.208 24.5476 55.208 24.1082V1.60815C55.208 1.1687 55.3618 0.795166 55.6914 0.465576C55.999 0.157959 56.3726 0.00415039 56.834 0.00415039H60.042C60.4814 0.00415039 60.855 0.157959 61.1846 0.465576C61.4922 0.795166 61.646 1.1687 61.646 1.60815V24.1082C61.646 24.5476 61.7998 24.9211 62.1074 25.2507C62.437 25.5583 62.8105 25.7122 63.25 25.7122C63.6895 25.7122 64.063 25.5583 64.3926 25.2507C64.7002 24.9211 64.854 24.5476 64.854 24.1082V1.60815C64.854 1.1687 65.0078 0.795166 65.3374 0.465576C65.645 0.157959 66.0186 0.00415039 66.458 0.00415039H69.688C70.1274 0.00415039 70.501 0.157959 70.8086 0.465576C71.1382 0.795166 71.292 1.1687 71.292 1.60815V28.9202C71.292 29.821 70.9844 30.5681 70.3472 31.2053C69.71 31.8206 68.9629 32.1282 68.084 32.1282Z" fill="url(#paint0_linear_16_6)"/>
<path d="M90.562 32.1282H77.708C76.8071 32.1282 76.0601 31.8206 75.4229 31.2053C74.8076 30.5681 74.5 29.821 74.5 28.9202V3.21216C74.5 2.31128 74.8076 1.56421 75.4229 0.948975C76.0601 0.311768 76.8071 0.00415039 77.708 0.00415039H90.562C91.4629 0.00415039 92.21 0.311768 92.8252 0.948975C93.4624 1.56421 93.77 2.31128 93.77 3.21216V11.2542C93.77 11.6936 93.6162 12.0671 93.3086 12.3748C92.979 12.7043 92.6055 12.8582 92.166 12.8582H88.958C88.5186 12.8582 88.145 12.7043 87.8154 12.3748C87.5078 12.0671 87.354 11.6936 87.354 11.2542V8.02417C87.354 7.58472 87.2002 7.21118 86.8706 6.90356C86.563 6.57397 86.1895 6.42017 85.75 6.42017H82.52C82.0806 6.42017 81.707 6.57397 81.3774 6.90356C81.0698 7.21118 80.916 7.58472 80.916 8.02417V24.1082C80.916 24.5476 81.0698 24.9211 81.3774 25.2507C81.707 25.5583 82.0806 25.7122 82.52 25.7122H85.75C86.1895 25.7122 86.563 25.5583 86.8706 25.2507C87.2002 24.9211 87.354 24.5476 87.354 24.1082V22.5042H85.75C85.2886 22.5042 84.915 22.3503 84.6074 22.0208C84.2778 21.7131 84.124 21.3396 84.124 20.8782V17.6702C84.124 17.2307 84.2778 16.8572 84.6074 16.5496C84.915 16.22 85.2886 16.0662 85.75 16.0662H92.166C92.6055 16.0662 92.979 16.22 93.3086 16.5276C93.6162 16.8572 93.77 17.2307 93.77 17.6702V28.9202C93.77 29.821 93.4624 30.5681 92.8252 31.2053C92.188 31.8206 91.4409 32.1282 90.562 32.1282ZM105.02 12.8582H108.25C108.689 12.8582 109.063 12.7043 109.371 12.3748C109.7 12.0671 109.854 11.6936 109.854 11.2542V8.02417C109.854 7.58472 109.7 7.21118 109.371 6.90356C109.063 6.57397 108.689 6.42017 108.25 6.42017H105.02C104.581 6.42017 104.207 6.57397 103.877 6.90356C103.57 7.21118 103.416 7.58472 103.416 8.02417V11.2542C103.416 11.6936 103.57 12.0671 103.877 12.3748C104.207 12.7043 104.581 12.8582 105.02 12.8582ZM101.812 32.1282H98.604C98.1426 32.1282 97.769 31.9744 97.4614 31.6667C97.1538 31.3591 97 30.9856 97 30.5242V1.60815C97 1.1687 97.1538 0.795166 97.4614 0.465576C97.769 0.157959 98.1426 0.00415039 98.604 0.00415039H113.062C113.963 0.00415039 114.71 0.311768 115.325 0.948975C115.962 1.56421 116.27 2.31128 116.27 3.21216V16.0662C116.27 16.967 115.962 17.7141 115.325 18.3293C114.688 18.9666 113.941 19.2742 113.062 19.2742L116.27 22.5042V30.5242C116.27 30.9856 116.116 31.3591 115.809 31.6667C115.479 31.9744 115.105 32.1282 114.666 32.1282H111.458C111.019 32.1282 110.645 31.9744 110.315 31.6667C110.008 31.3591 109.854 30.9856 109.854 30.5242V25.7122L103.416 19.2742V30.5242C103.416 30.9856 103.262 31.3591 102.955 31.6667C102.625 31.9744 102.251 32.1282 101.812 32.1282ZM127.52 25.7122H130.75C131.189 25.7122 131.563 25.5583 131.871 25.2507C132.2 24.9211 132.354 24.5476 132.354 24.1082V8.02417C132.354 7.58472 132.2 7.21118 131.871 6.90356C131.563 6.57397 131.189 6.42017 130.75 6.42017H127.52C127.081 6.42017 126.707 6.57397 126.377 6.90356C126.07 7.21118 125.916 7.58472 125.916 8.02417V24.1082C125.916 24.5476 126.07 24.9211 126.377 25.2507C126.707 25.5583 127.081 25.7122 127.52 25.7122ZM135.562 32.1282H122.708C121.807 32.1282 121.06 31.8206 120.423 31.2053C119.808 30.5681 119.5 29.821 119.5 28.9202V3.21216C119.5 2.31128 119.808 1.56421 120.423 0.948975C121.06 0.311768 121.807 0.00415039 122.708 0.00415039H135.562C136.463 0.00415039 137.21 0.311768 137.825 0.948975C138.462 1.56421 138.77 2.31128 138.77 3.21216V28.9202C138.77 29.821 138.462 30.5681 137.825 31.2053C137.188 31.8206 136.441 32.1282 135.562 32.1282ZM158.062 32.1282H145.208C144.307 32.1282 143.56 31.8206 142.923 31.2053C142.308 30.5681 142 29.821 142 28.9202V1.60815C142 1.1687 142.154 0.795166 142.461 0.465576C142.769 0.157959 143.143 0.00415039 143.604 0.00415039H146.812C147.251 0.00415039 147.625 0.157959 147.955 0.465576C148.262 0.795166 148.416 1.1687 148.416 1.60815V24.1082C148.416 24.5476 148.57 24.9211 148.877 25.2507C149.207 25.5583 149.581 25.7122 150.02 25.7122H153.25C153.689 25.7122 154.063 25.5583 154.371 25.2507C154.7 24.9211 154.854 24.5476 154.854 24.1082V1.60815C154.854 1.1687 155.008 0.795166 155.315 0.465576C155.645 0.157959 156.019 0.00415039 156.458 0.00415039H159.666C160.105 0.00415039 160.479 0.157959 160.809 0.465576C161.116 0.795166 161.27 1.1687 161.27 1.60815V28.9202C161.27 29.821 160.962 30.5681 160.325 31.2053C159.688 31.8206 158.941 32.1282 158.062 32.1282ZM169.312 32.1282H166.104C165.643 32.1282 165.269 31.9744 164.961 31.6667C164.654 31.3591 164.5 30.9856 164.5 30.5242V1.60815C164.5 1.1687 164.654 0.795166 164.961 0.465576C165.269 0.157959 165.643 0.00415039 166.104 0.00415039H180.562C181.463 0.00415039 182.21 0.311768 182.825 0.948975C183.462 1.56421 183.77 2.31128 183.77 3.21216V30.5242C183.77 30.9856 183.616 31.3591 183.309 31.6667C182.979 31.9744 182.605 32.1282 182.166 32.1282H178.958C178.519 32.1282 178.145 31.9744 177.815 31.6667C177.508 31.3591 177.354 30.9856 177.354 30.5242V8.02417C177.354 7.58472 177.2 7.21118 176.871 6.90356C176.563 6.57397 176.189 6.42017 175.75 6.42017H172.52C172.081 6.42017 171.707 6.57397 171.377 6.90356C171.07 7.21118 170.916 7.58472 170.916 8.02417V30.5242C170.916 30.9856 170.762 31.3591 170.455 31.6667C170.125 31.9744 169.751 32.1282 169.312 32.1282ZM195.02 25.7122H198.25C198.689 25.7122 199.063 25.5583 199.371 25.2507C199.7 24.9211 199.854 24.5476 199.854 24.1082V8.02417C199.854 7.58472 199.7 7.21118 199.371 6.90356C199.063 6.57397 198.689 6.42017 198.25 6.42017H195.02C194.581 6.42017 194.207 6.57397 193.877 6.90356C193.57 7.21118 193.416 7.58472 193.416 8.02417V24.1082C193.416 24.5476 193.57 24.9211 193.877 25.2507C194.207 25.5583 194.581 25.7122 195.02 25.7122ZM203.062 32.1282H188.604C188.143 32.1282 187.769 31.9744 187.461 31.6667C187.154 31.3591 187 30.9856 187 30.5242V1.60815C187 1.1687 187.154 0.795166 187.461 0.465576C187.769 0.157959 188.143 0.00415039 188.604 0.00415039H203.062C203.963 0.00415039 204.71 0.311768 205.325 0.948975C205.962 1.56421 206.27 2.31128 206.27 3.21216V28.9202C206.27 29.821 205.962 30.5681 205.325 31.2053C204.688 31.8206 203.941 32.1282 203.062 32.1282ZM225.562 32.1282H211.104C210.643 32.1282 210.269 31.9744 209.961 31.6667C209.654 31.3591 209.5 30.9856 209.5 30.5242V27.3162C209.5 26.8767 209.654 26.5032 209.961 26.1736C210.269 25.866 210.643 25.7122 211.104 25.7122H220.75C221.189 25.7122 221.563 25.5583 221.871 25.2507C222.2 24.9211 222.354 24.5476 222.354 24.1082V20.8782C222.354 20.4387 222.2 20.0652 221.871 19.7576C221.563 19.428 221.189 19.2742 220.75 19.2742H212.708C211.807 19.2742 211.06 18.9666 210.423 18.3293C209.808 17.7141 209.5 16.967 209.5 16.0662V3.21216C209.5 2.31128 209.808 1.56421 210.423 0.948975C211.06 0.311768 211.807 0.00415039 212.708 0.00415039H227.166C227.605 0.00415039 227.979 0.157959 228.309 0.465576C228.616 0.795166 228.77 1.1687 228.77 1.60815V4.81616C228.77 5.25562 228.616 5.62915 228.309 5.95874C227.979 6.26636 227.605 6.42017 227.166 6.42017H217.52C217.081 6.42017 216.707 6.57397 216.377 6.90356C216.07 7.21118 215.916 7.58472 215.916 8.02417V11.2542C215.916 11.6936 216.07 12.0671 216.377 12.3748C216.707 12.7043 217.081 12.8582 217.52 12.8582H225.562C226.463 12.8582 227.21 13.1658 227.825 13.803C228.462 14.4402 228.77 15.1873 228.77 16.0662V28.9202C228.77 29.821 228.462 30.5681 227.825 31.2053C227.188 31.8206 226.441 32.1282 225.562 32.1282Z" fill="black"/>
<defs>
<linearGradient id="paint0_linear_16_6" x1="116.584" y1="-2.87183" x2="116.584" y2="32.1282" gradientUnits="userSpaceOnUse">
<stop stop-color="#FCA238"/>
<stop offset="1" stop-color="#FE3B41"/>
</linearGradient>
</defs>
</svg>
