<svg width="97" height="98" viewBox="0 0 97 98" fill="none" xmlns="http://www.w3.org/2000/svg">
<rect x="0.648438" y="0.0109863" width="15.8899" height="15.5203" fill="white"/>
<rect x="0.648438" y="0.0109863" width="15.8899" height="15.5203" fill="url(#paint0_linear_56_71)"/>
<rect x="22.998" y="0.0109863" width="73.4155" height="15.5203" fill="white"/>
<rect x="22.998" y="0.0109863" width="73.4155" height="15.5203" fill="url(#paint1_linear_56_71)"/>
<rect x="22.998" y="20.3826" width="73.4155" height="15.5203" fill="white"/>
<rect x="22.998" y="20.3826" width="73.4155" height="15.5203" fill="url(#paint2_linear_56_71)"/>
<rect x="22.998" y="40.755" width="73.4155" height="15.5203" fill="white"/>
<rect x="22.998" y="61.1273" width="73.4155" height="15.5203" fill="white"/>
<rect x="22.998" y="61.1273" width="73.4155" height="15.5203" fill="url(#paint3_linear_56_71)"/>
<rect x="22.998" y="81.4998" width="73.4155" height="15.5203" fill="white"/>
<rect x="22.998" y="81.4998" width="73.4155" height="15.5203" fill="url(#paint4_linear_56_71)"/>
<rect x="0.648438" y="20.3826" width="15.8899" height="15.5203" fill="white"/>
<rect x="0.648438" y="20.3826" width="15.8899" height="15.5203" fill="url(#paint5_linear_56_71)"/>
<rect x="0.648438" y="40.755" width="15.8899" height="15.5203" fill="white"/>
<rect x="0.648438" y="61.1273" width="15.8899" height="15.5203" fill="white"/>
<rect x="0.648438" y="61.1273" width="15.8899" height="15.5203" fill="url(#paint6_linear_56_71)"/>
<rect x="0.648438" y="81.4998" width="15.8899" height="15.5203" fill="white"/>
<rect x="0.648438" y="81.4998" width="15.8899" height="15.5203" fill="url(#paint7_linear_56_71)"/>
<defs>
<linearGradient id="paint0_linear_56_71" x1="13.1619" y1="8.00477" x2="3.75618" y2="2.12568" gradientUnits="userSpaceOnUse">
<stop stop-color="#FFB13C"/>
<stop offset="0.418968" stop-color="#FF7B00"/>
<stop offset="1" stop-color="#FFB13C"/>
</linearGradient>
<linearGradient id="paint1_linear_56_71" x1="80.8135" y1="8.00477" x2="74.343" y2="-10.6816" gradientUnits="userSpaceOnUse">
<stop stop-color="#FFB13C"/>
<stop offset="0.418968" stop-color="#FF7B00"/>
<stop offset="1" stop-color="#FFB13C"/>
</linearGradient>
<linearGradient id="paint2_linear_56_71" x1="80.8135" y1="28.3764" x2="74.343" y2="9.68999" gradientUnits="userSpaceOnUse">
<stop stop-color="#FFB13C"/>
<stop offset="0.418968" stop-color="#FF7B00"/>
<stop offset="1" stop-color="#FFB13C"/>
</linearGradient>
<linearGradient id="paint3_linear_56_71" x1="80.8135" y1="69.1211" x2="74.343" y2="50.4347" gradientUnits="userSpaceOnUse">
<stop stop-color="#FFB13C"/>
<stop offset="0.418968" stop-color="#FF7B00"/>
<stop offset="1" stop-color="#FFB13C"/>
</linearGradient>
<linearGradient id="paint4_linear_56_71" x1="80.8135" y1="89.4935" x2="74.343" y2="70.8072" gradientUnits="userSpaceOnUse">
<stop stop-color="#FFB13C"/>
<stop offset="0.418968" stop-color="#FF7B00"/>
<stop offset="1" stop-color="#FFB13C"/>
</linearGradient>
<linearGradient id="paint5_linear_56_71" x1="13.1619" y1="28.3764" x2="3.75618" y2="22.4973" gradientUnits="userSpaceOnUse">
<stop stop-color="#FFB13C"/>
<stop offset="0.418968" stop-color="#FF7B00"/>
<stop offset="1" stop-color="#FFB13C"/>
</linearGradient>
<linearGradient id="paint6_linear_56_71" x1="13.1619" y1="69.1211" x2="3.75618" y2="63.242" gradientUnits="userSpaceOnUse">
<stop stop-color="#FFB13C"/>
<stop offset="0.418968" stop-color="#FF7B00"/>
<stop offset="1" stop-color="#FFB13C"/>
</linearGradient>
<linearGradient id="paint7_linear_56_71" x1="13.1619" y1="89.4935" x2="3.75618" y2="83.6144" gradientUnits="userSpaceOnUse">
<stop stop-color="#FFB13C"/>
<stop offset="0.418968" stop-color="#FF7B00"/>
<stop offset="1" stop-color="#FFB13C"/>
</linearGradient>
</defs>
</svg>
