<svg width="89" height="87" viewBox="0 0 89 87" fill="none" xmlns="http://www.w3.org/2000/svg">
<path d="M80.0346 78.2334C79.25 79.5408 85.482 83.6809 88.696 85.5875C84.2502 87.2869 75.2954 84.1167 71.3737 82.3192C71.755 82.8095 69.8702 84.1496 59.2802 85.5875C41.14 87.3854 33.241 81.2839 29.8635 78.2334C24.7972 73.8209 16.9527 62.3159 26.1045 51.5952C37.5443 38.1943 60.0971 36.0697 72.6807 42.9335C100.136 60.0932 81.0153 76.5992 80.0346 78.2334Z" fill="white"/>
<path d="M10.7 50.9759C10.7001 53.4739 3.90005 59.5108 0.5 62.217C7.60211 63.0706 16.7095 60.9508 20.0619 59.7842C20.6827 55.2523 21.9373 45.0166 38.4212 38.9779C58.7679 31.5242 76.4803 40.4288 82.9334 45.7718C87.7906 40.2901 93.1335 25.7878 75.6476 11.6325C53.7902 -6.06156 25.4796 -1.27381 7.99368 15.7958C-5.99506 29.4515 3.96925 44.939 10.7 50.9759Z" fill="url(#paint0_linear_56_66)"/>
<defs>
<linearGradient id="paint0_linear_56_66" x1="69.1593" y1="32.372" x2="27.8701" y2="-3.10399" gradientUnits="userSpaceOnUse">
<stop stop-color="#FFB13C"/>
<stop offset="0.418968" stop-color="#FF7B00"/>
<stop offset="1" stop-color="#FFB13C"/>
</linearGradient>
</defs>
</svg>
