<svg width="96" height="94" viewBox="0 0 96 94" fill="none" xmlns="http://www.w3.org/2000/svg">
<path d="M11.5496 62.4925C10.8364 62.6351 3.64352 20.9409 0.13623 0.0760498L40.6177 1.85926L43.1143 62.4925C32.8899 62.4331 12.2627 62.3499 11.5496 62.4925Z" fill="url(#paint0_linear_56_67)"/>
<path d="M16.3646 93.7009L13.333 74.7975H44.5411V92.0959L16.3646 93.7009Z" fill="url(#paint1_linear_56_67)"/>
<path d="M56.8457 91.2042V73.5493H84.1307L81.8124 91.2042H56.8457Z" fill="url(#paint2_linear_56_67)"/>
<path d="M86.0929 61.7793L95.9013 5.42597L58.6294 3.46436L57.3813 61.7793H86.0929Z" fill="url(#paint3_linear_56_67)"/>
<defs>
<linearGradient id="paint0_linear_56_67" x1="33.9819" y1="32.2241" x2="3.91586" y2="19.5849" gradientUnits="userSpaceOnUse">
<stop stop-color="#FFB13C"/>
<stop offset="0.418968" stop-color="#FF7B00"/>
<stop offset="1" stop-color="#FFB13C"/>
</linearGradient>
<linearGradient id="paint1_linear_56_67" x1="37.9097" y1="84.5338" x2="25.1658" y2="71.689" gradientUnits="userSpaceOnUse">
<stop stop-color="#FFB13C"/>
<stop offset="0.418968" stop-color="#FF7B00"/>
<stop offset="1" stop-color="#FFB13C"/>
</linearGradient>
<linearGradient id="paint2_linear_56_67" x1="78.3329" y1="82.6425" x2="66.4505" y2="71.431" gradientUnits="userSpaceOnUse">
<stop stop-color="#FFB13C"/>
<stop offset="0.418968" stop-color="#FF7B00"/>
<stop offset="1" stop-color="#FFB13C"/>
</linearGradient>
<linearGradient id="paint3_linear_56_67" x1="87.7162" y1="33.4997" x2="60.4424" y2="22.5008" gradientUnits="userSpaceOnUse">
<stop stop-color="#FFB13C"/>
<stop offset="0.418968" stop-color="#FF7B00"/>
<stop offset="1" stop-color="#FFB13C"/>
</linearGradient>
</defs>
</svg>
