<svg width="229" height="33" viewBox="0 0 229 33" fill="none" xmlns="http://www.w3.org/2000/svg">
<path d="M5.396 32.5415H2.18799C1.72656 32.5415 1.35303 32.3877 1.04541 32.0801C0.737793 31.7725 0.583984 31.3989 0.583984 30.9375V2.02148C0.583984 1.58203 0.737793 1.2085 1.04541 0.878906C1.35303 0.571289 1.72656 0.41748 2.18799 0.41748H16.646C17.5469 0.41748 18.2939 0.725098 18.9092 1.3623C19.5464 1.97754 19.854 2.72461 19.854 3.62549V30.9375C19.854 31.3989 19.7002 31.7725 19.3926 32.0801C19.063 32.3877 18.6895 32.5415 18.25 32.5415H15.042C14.6025 32.5415 14.229 32.3877 13.8994 32.0801C13.5918 31.7725 13.438 31.3989 13.438 30.9375V8.4375C13.438 7.99805 13.2842 7.62451 12.9546 7.31689C12.647 6.9873 12.2734 6.8335 11.834 6.8335H8.604C8.16455 6.8335 7.79102 6.9873 7.46143 7.31689C7.15381 7.62451 7 7.99805 7 8.4375V30.9375C7 31.3989 6.84619 31.7725 6.53857 32.0801C6.20898 32.3877 5.83545 32.5415 5.396 32.5415ZM40.75 32.5415H24.688C24.2266 32.5415 23.853 32.3877 23.5454 32.0801C23.2378 31.7725 23.084 31.3989 23.084 30.9375V2.02148C23.084 1.58203 23.2378 1.2085 23.5454 0.878906C23.853 0.571289 24.2266 0.41748 24.688 0.41748H40.75C41.1895 0.41748 41.563 0.571289 41.8926 0.878906C42.2002 1.2085 42.354 1.58203 42.354 2.02148V5.22949C42.354 5.66895 42.2002 6.04248 41.8926 6.37207C41.563 6.67969 41.1895 6.8335 40.75 6.8335H31.104C30.6646 6.8335 30.291 6.9873 29.9614 7.31689C29.6538 7.62451 29.5 7.99805 29.5 8.4375V11.6675C29.5 12.1069 29.6538 12.4805 29.9614 12.7881C30.291 13.1177 30.6646 13.2715 31.104 13.2715H40.75C41.1895 13.2715 41.563 13.4253 41.8926 13.7329C42.2002 14.0625 42.354 14.436 42.354 14.8755V18.0835C42.354 18.5229 42.2002 18.8965 41.8926 19.2261C41.563 19.5337 41.1895 19.6875 40.75 19.6875H31.104C30.6646 19.6875 30.291 19.8413 29.9614 20.1709C29.6538 20.4785 29.5 20.8521 29.5 21.2915V24.5215C29.5 24.9609 29.6538 25.3345 29.9614 25.6641C30.291 25.9717 30.6646 26.1255 31.104 26.1255H40.75C41.1895 26.1255 41.563 26.2793 41.8926 26.5869C42.2002 26.9165 42.354 27.29 42.354 27.7295V30.9375C42.354 31.3989 42.2002 31.7725 41.8926 32.0801C41.563 32.3877 41.1895 32.5415 40.75 32.5415ZM68.084 32.5415H48.792C47.8911 32.5415 47.144 32.2339 46.5068 31.6187C45.8916 30.9814 45.584 30.2344 45.584 29.3335V2.02148C45.584 1.58203 45.7378 1.2085 46.0454 0.878906C46.353 0.571289 46.7266 0.41748 47.188 0.41748H50.396C50.8354 0.41748 51.209 0.571289 51.5386 0.878906C51.8462 1.2085 52 1.58203 52 2.02148V24.5215C52 24.9609 52.1538 25.3345 52.4614 25.6641C52.791 25.9717 53.1646 26.1255 53.604 26.1255C54.0435 26.1255 54.417 25.9717 54.7466 25.6641C55.0542 25.3345 55.208 24.9609 55.208 24.5215V2.02148C55.208 1.58203 55.3618 1.2085 55.6914 0.878906C55.999 0.571289 56.3726 0.41748 56.834 0.41748H60.042C60.4814 0.41748 60.855 0.571289 61.1846 0.878906C61.4922 1.2085 61.646 1.58203 61.646 2.02148V24.5215C61.646 24.9609 61.7998 25.3345 62.1074 25.6641C62.437 25.9717 62.8105 26.1255 63.25 26.1255C63.6895 26.1255 64.063 25.9717 64.3926 25.6641C64.7002 25.3345 64.854 24.9609 64.854 24.5215V2.02148C64.854 1.58203 65.0078 1.2085 65.3374 0.878906C65.645 0.571289 66.0186 0.41748 66.458 0.41748H69.688C70.1274 0.41748 70.501 0.571289 70.8086 0.878906C71.1382 1.2085 71.292 1.58203 71.292 2.02148V29.3335C71.292 30.2344 70.9844 30.9814 70.3472 31.6187C69.71 32.2339 68.9629 32.5415 68.084 32.5415Z" fill="url(#paint0_linear_16_7)"/>
<path d="M90.562 32.5415H77.708C76.8071 32.5415 76.0601 32.2339 75.4229 31.6187C74.8076 30.9814 74.5 30.2344 74.5 29.3335V3.62549C74.5 2.72461 74.8076 1.97754 75.4229 1.3623C76.0601 0.725098 76.8071 0.41748 77.708 0.41748H90.562C91.4629 0.41748 92.21 0.725098 92.8252 1.3623C93.4624 1.97754 93.77 2.72461 93.77 3.62549V11.6675C93.77 12.1069 93.6162 12.4805 93.3086 12.7881C92.979 13.1177 92.6055 13.2715 92.166 13.2715H88.958C88.5186 13.2715 88.145 13.1177 87.8154 12.7881C87.5078 12.4805 87.354 12.1069 87.354 11.6675V8.4375C87.354 7.99805 87.2002 7.62451 86.8706 7.31689C86.563 6.9873 86.1895 6.8335 85.75 6.8335H82.52C82.0806 6.8335 81.707 6.9873 81.3774 7.31689C81.0698 7.62451 80.916 7.99805 80.916 8.4375V24.5215C80.916 24.9609 81.0698 25.3345 81.3774 25.6641C81.707 25.9717 82.0806 26.1255 82.52 26.1255H85.75C86.1895 26.1255 86.563 25.9717 86.8706 25.6641C87.2002 25.3345 87.354 24.9609 87.354 24.5215V22.9175H85.75C85.2886 22.9175 84.915 22.7637 84.6074 22.4341C84.2778 22.1265 84.124 21.7529 84.124 21.2915V18.0835C84.124 17.644 84.2778 17.2705 84.6074 16.9629C84.915 16.6333 85.2886 16.4795 85.75 16.4795H92.166C92.6055 16.4795 92.979 16.6333 93.3086 16.9409C93.6162 17.2705 93.77 17.644 93.77 18.0835V29.3335C93.77 30.2344 93.4624 30.9814 92.8252 31.6187C92.188 32.2339 91.4409 32.5415 90.562 32.5415ZM105.02 13.2715H108.25C108.689 13.2715 109.063 13.1177 109.371 12.7881C109.7 12.4805 109.854 12.1069 109.854 11.6675V8.4375C109.854 7.99805 109.7 7.62451 109.371 7.31689C109.063 6.9873 108.689 6.8335 108.25 6.8335H105.02C104.581 6.8335 104.207 6.9873 103.877 7.31689C103.57 7.62451 103.416 7.99805 103.416 8.4375V11.6675C103.416 12.1069 103.57 12.4805 103.877 12.7881C104.207 13.1177 104.581 13.2715 105.02 13.2715ZM101.812 32.5415H98.604C98.1426 32.5415 97.769 32.3877 97.4614 32.0801C97.1538 31.7725 97 31.3989 97 30.9375V2.02148C97 1.58203 97.1538 1.2085 97.4614 0.878906C97.769 0.571289 98.1426 0.41748 98.604 0.41748H113.062C113.963 0.41748 114.71 0.725098 115.325 1.3623C115.962 1.97754 116.27 2.72461 116.27 3.62549V16.4795C116.27 17.3804 115.962 18.1274 115.325 18.7427C114.688 19.3799 113.941 19.6875 113.062 19.6875L116.27 22.9175V30.9375C116.27 31.3989 116.116 31.7725 115.809 32.0801C115.479 32.3877 115.105 32.5415 114.666 32.5415H111.458C111.019 32.5415 110.645 32.3877 110.315 32.0801C110.008 31.7725 109.854 31.3989 109.854 30.9375V26.1255L103.416 19.6875V30.9375C103.416 31.3989 103.262 31.7725 102.955 32.0801C102.625 32.3877 102.251 32.5415 101.812 32.5415ZM127.52 26.1255H130.75C131.189 26.1255 131.563 25.9717 131.871 25.6641C132.2 25.3345 132.354 24.9609 132.354 24.5215V8.4375C132.354 7.99805 132.2 7.62451 131.871 7.31689C131.563 6.9873 131.189 6.8335 130.75 6.8335H127.52C127.081 6.8335 126.707 6.9873 126.377 7.31689C126.07 7.62451 125.916 7.99805 125.916 8.4375V24.5215C125.916 24.9609 126.07 25.3345 126.377 25.6641C126.707 25.9717 127.081 26.1255 127.52 26.1255ZM135.562 32.5415H122.708C121.807 32.5415 121.06 32.2339 120.423 31.6187C119.808 30.9814 119.5 30.2344 119.5 29.3335V3.62549C119.5 2.72461 119.808 1.97754 120.423 1.3623C121.06 0.725098 121.807 0.41748 122.708 0.41748H135.562C136.463 0.41748 137.21 0.725098 137.825 1.3623C138.462 1.97754 138.77 2.72461 138.77 3.62549V29.3335C138.77 30.2344 138.462 30.9814 137.825 31.6187C137.188 32.2339 136.441 32.5415 135.562 32.5415ZM158.062 32.5415H145.208C144.307 32.5415 143.56 32.2339 142.923 31.6187C142.308 30.9814 142 30.2344 142 29.3335V2.02148C142 1.58203 142.154 1.2085 142.461 0.878906C142.769 0.571289 143.143 0.41748 143.604 0.41748H146.812C147.251 0.41748 147.625 0.571289 147.955 0.878906C148.262 1.2085 148.416 1.58203 148.416 2.02148V24.5215C148.416 24.9609 148.57 25.3345 148.877 25.6641C149.207 25.9717 149.581 26.1255 150.02 26.1255H153.25C153.689 26.1255 154.063 25.9717 154.371 25.6641C154.7 25.3345 154.854 24.9609 154.854 24.5215V2.02148C154.854 1.58203 155.008 1.2085 155.315 0.878906C155.645 0.571289 156.019 0.41748 156.458 0.41748H159.666C160.105 0.41748 160.479 0.571289 160.809 0.878906C161.116 1.2085 161.27 1.58203 161.27 2.02148V29.3335C161.27 30.2344 160.962 30.9814 160.325 31.6187C159.688 32.2339 158.941 32.5415 158.062 32.5415ZM169.312 32.5415H166.104C165.643 32.5415 165.269 32.3877 164.961 32.0801C164.654 31.7725 164.5 31.3989 164.5 30.9375V2.02148C164.5 1.58203 164.654 1.2085 164.961 0.878906C165.269 0.571289 165.643 0.41748 166.104 0.41748H180.562C181.463 0.41748 182.21 0.725098 182.825 1.3623C183.462 1.97754 183.77 2.72461 183.77 3.62549V30.9375C183.77 31.3989 183.616 31.7725 183.309 32.0801C182.979 32.3877 182.605 32.5415 182.166 32.5415H178.958C178.519 32.5415 178.145 32.3877 177.815 32.0801C177.508 31.7725 177.354 31.3989 177.354 30.9375V8.4375C177.354 7.99805 177.2 7.62451 176.871 7.31689C176.563 6.9873 176.189 6.8335 175.75 6.8335H172.52C172.081 6.8335 171.707 6.9873 171.377 7.31689C171.07 7.62451 170.916 7.99805 170.916 8.4375V30.9375C170.916 31.3989 170.762 31.7725 170.455 32.0801C170.125 32.3877 169.751 32.5415 169.312 32.5415ZM195.02 26.1255H198.25C198.689 26.1255 199.063 25.9717 199.371 25.6641C199.7 25.3345 199.854 24.9609 199.854 24.5215V8.4375C199.854 7.99805 199.7 7.62451 199.371 7.31689C199.063 6.9873 198.689 6.8335 198.25 6.8335H195.02C194.581 6.8335 194.207 6.9873 193.877 7.31689C193.57 7.62451 193.416 7.99805 193.416 8.4375V24.5215C193.416 24.9609 193.57 25.3345 193.877 25.6641C194.207 25.9717 194.581 26.1255 195.02 26.1255ZM203.062 32.5415H188.604C188.143 32.5415 187.769 32.3877 187.461 32.0801C187.154 31.7725 187 31.3989 187 30.9375V2.02148C187 1.58203 187.154 1.2085 187.461 0.878906C187.769 0.571289 188.143 0.41748 188.604 0.41748H203.062C203.963 0.41748 204.71 0.725098 205.325 1.3623C205.962 1.97754 206.27 2.72461 206.27 3.62549V29.3335C206.27 30.2344 205.962 30.9814 205.325 31.6187C204.688 32.2339 203.941 32.5415 203.062 32.5415ZM225.562 32.5415H211.104C210.643 32.5415 210.269 32.3877 209.961 32.0801C209.654 31.7725 209.5 31.3989 209.5 30.9375V27.7295C209.5 27.29 209.654 26.9165 209.961 26.5869C210.269 26.2793 210.643 26.1255 211.104 26.1255H220.75C221.189 26.1255 221.563 25.9717 221.871 25.6641C222.2 25.3345 222.354 24.9609 222.354 24.5215V21.2915C222.354 20.8521 222.2 20.4785 221.871 20.1709C221.563 19.8413 221.189 19.6875 220.75 19.6875H212.708C211.807 19.6875 211.06 19.3799 210.423 18.7427C209.808 18.1274 209.5 17.3804 209.5 16.4795V3.62549C209.5 2.72461 209.808 1.97754 210.423 1.3623C211.06 0.725098 211.807 0.41748 212.708 0.41748H227.166C227.605 0.41748 227.979 0.571289 228.309 0.878906C228.616 1.2085 228.77 1.58203 228.77 2.02148V5.22949C228.77 5.66895 228.616 6.04248 228.309 6.37207C227.979 6.67969 227.605 6.8335 227.166 6.8335H217.52C217.081 6.8335 216.707 6.9873 216.377 7.31689C216.07 7.62451 215.916 7.99805 215.916 8.4375V11.6675C215.916 12.1069 216.07 12.4805 216.377 12.7881C216.707 13.1177 217.081 13.2715 217.52 13.2715H225.562C226.463 13.2715 227.21 13.5791 227.825 14.2163C228.462 14.8535 228.77 15.6006 228.77 16.4795V29.3335C228.77 30.2344 228.462 30.9814 227.825 31.6187C227.188 32.2339 226.441 32.5415 225.562 32.5415Z" fill="white"/>
<defs>
<linearGradient id="paint0_linear_16_7" x1="116.584" y1="-2.4585" x2="116.584" y2="32.5415" gradientUnits="userSpaceOnUse">
<stop stop-color="#FCA238"/>
<stop offset="1" stop-color="#FE3B41"/>
</linearGradient>
</defs>
</svg>
