<svg width="94" height="94" viewBox="0 0 94 94" fill="none" xmlns="http://www.w3.org/2000/svg">
<path d="M58.8196 77.6746H34.2542C32.5325 77.6746 31.1047 77.0867 29.887 75.9109C28.7112 74.6931 28.1233 73.2654 28.1233 71.5437V62.3474C28.1233 61.5076 28.4172 60.7937 29.0051 60.1638C29.593 59.5759 30.3069 59.282 31.1887 59.282H37.3196C38.1594 59.282 38.8733 59.5759 39.5032 60.1638C40.0911 60.7937 40.385 61.5076 40.385 62.3474C40.385 63.1873 40.679 63.9011 41.2668 64.531C41.8967 65.1189 42.6106 65.4128 43.4504 65.4128H49.6233C50.4631 65.4128 51.177 65.1189 51.7649 64.531C52.3948 63.9011 52.6887 63.1873 52.6887 62.3474V56.1746C52.6887 55.3347 52.3948 54.6208 51.7649 54.033C51.177 53.4031 50.4631 53.1091 49.6233 53.1091H43.4504C42.6106 53.1091 41.8967 52.8152 41.2668 52.2273C40.679 51.5974 40.385 50.8835 40.385 50.0437V43.9128C40.385 43.073 40.679 42.3591 41.2668 41.7292C41.8967 41.1414 42.6106 40.8474 43.4504 40.8474H49.6233C50.4631 40.8474 51.177 40.5535 51.7649 39.9236C52.3948 39.3357 52.6887 38.6218 52.6887 37.782V31.6091C52.6887 30.7693 52.3948 30.0554 51.7649 29.4675C51.177 28.8376 50.4631 28.5437 49.6233 28.5437H43.4504C42.6106 28.5437 41.8967 28.8376 41.2668 29.4675C40.679 30.0554 40.385 30.7693 40.385 31.6091C40.385 32.491 40.0911 33.2048 39.5032 33.7927C38.8733 34.3806 38.1594 34.6746 37.3196 34.6746H31.1887C30.3069 34.6746 29.593 34.3806 29.0051 33.7927C28.4172 33.2048 28.1233 32.491 28.1233 31.6091V22.4128C28.1233 20.6912 28.7112 19.2634 29.887 18.0876C31.1047 16.8699 32.5325 16.282 34.2542 16.282H58.8196C60.5413 16.282 61.969 16.8699 63.1448 18.0876C64.3625 19.2634 64.9504 20.6912 64.9504 22.4128V71.5437C64.9504 73.2654 64.3625 74.6931 63.1448 75.9109C61.927 77.0867 60.4993 77.6746 58.8196 77.6746Z" fill="url(#paint0_linear_56_79)"/>
<defs>
<linearGradient id="paint0_linear_56_79" x1="73.0243" y1="57.3958" x2="26.3946" y2="26.5749" gradientUnits="userSpaceOnUse">
<stop stop-color="#FFB13C"/>
<stop offset="0.418968" stop-color="#FF7B00"/>
<stop offset="1" stop-color="#FFB13C"/>
</linearGradient>
</defs>
</svg>
