<svg width="96" height="96" viewBox="0 0 96 96" fill="none" xmlns="http://www.w3.org/2000/svg">
<path d="M95.5507 95.0444H69.8268C72.2339 89.93 72.2339 85.2667 72.2339 78.1966C72.2339 73.9418 69.6767 60.4947 68.6237 55.7813L79.9058 50.3659C93.3842 54.9389 96.2526 82.6091 95.5507 95.0444Z" fill="#FBFBFB"/>
<path d="M65.4646 52.022C63.6595 47.6897 56.2885 41.7929 52.8286 39.386C53.8315 37.8812 55.2318 33.8838 56.9166 30.8752C59.0226 27.1145 58.1819 21.3801 57.5656 18.915C57.0842 16.9895 54.524 10.5031 53.6716 8.24712C57.1315 7.34447 66.5915 7.60115 69.8268 8.24712C74.34 9.14823 80.2065 15.2169 81.8614 18.3256C84.4187 28.8557 84.1178 24.1925 82.764 36.3772C81.6809 46.125 70.7798 50.8687 65.4646 52.022Z" fill="#FBFBFB"/>
<ellipse cx="33.4547" cy="23.1769" rx="19.9977" ry="22.3386" fill="url(#paint0_linear_56_68)"/>
<path d="M1.81882 64.3865C4.57787 49.824 13.3156 45.5448 17.3396 45.2255C19.1918 47.1416 25.1189 50.9738 34.0096 50.9738C42.9003 50.9738 49.4662 47.1416 51.6378 45.2255C59.9154 47.2182 65.5615 58.8298 67.3499 64.3865V91.7869C66.7112 92.8727 65.0889 95.0443 63.7093 95.0443H5.26796L1.81882 93.3198C0.669219 89.7431 -0.940223 78.949 1.81882 64.3865Z" fill="url(#paint1_linear_56_68)"/>
<defs>
<linearGradient id="paint0_linear_56_68" x1="44.9538" y1="23.8494" x2="19.6024" y2="9.99397" gradientUnits="userSpaceOnUse">
<stop stop-color="#FFB13C"/>
<stop offset="0.418968" stop-color="#FF7B00"/>
<stop offset="1" stop-color="#FFB13C"/>
</linearGradient>
<linearGradient id="paint1_linear_56_68" x1="53.1015" y1="70.8849" x2="20.1518" y2="43.809" gradientUnits="userSpaceOnUse">
<stop stop-color="#FFB13C"/>
<stop offset="0.418968" stop-color="#FF7B00"/>
<stop offset="1" stop-color="#FFB13C"/>
</linearGradient>
</defs>
</svg>
